<svg xmlns="http://www.w3.org/2000/svg" xmlns:xlink="http://www.w3.org/1999/xlink" width="500" zoomAndPan="magnify" viewBox="0 0 375 374.999991" height="500" preserveAspectRatio="xMidYMid meet" version="1.0"><defs><g/><clipPath id="860c9298c8"><path d="M 62 114 L 184.730469 114 L 184.730469 256 L 62 256 Z M 62 114 " clip-rule="nonzero"/></clipPath></defs><g clip-path="url(#860c9298c8)"><path fill="#000000" d="M 184.078125 137.234375 C 183.316406 123.785156 172.863281 114.105469 159.644531 114.0625 C 153.351562 114.042969 147.058594 114.058594 140.765625 114.058594 C 132.097656 114.058594 123.429688 114.113281 112.332031 114.019531 L 112.332031 150.355469 C 106.246094 150.660156 100.394531 152.050781 94.738281 154.417969 C 65.566406 166.621094 55.730469 199.953125 68.09375 225.949219 C 80.285156 251.578125 110.113281 260.75 134.363281 252.109375 C 140.679688 249.859375 146.25 246.398438 151.414062 241.753906 C 149.292969 239.363281 147.351562 237.171875 145.410156 234.980469 C 143.511719 232.828125 143.519531 232.839844 141.257812 234.542969 C 128.355469 244.277344 114.1875 246.003906 99.457031 239.933594 C 85.199219 234.0625 77.230469 222.816406 75.5 207.609375 C 73.964844 194.121094 77.90625 182.265625 88.027344 172.84375 C 94.941406 166.40625 103.175781 163.0625 112.328125 162.347656 L 112.328125 217.046875 L 124.101562 217.046875 L 124.101562 162.148438 C 135.855469 162.101562 147.605469 162.160156 159.359375 162.152344 C 160.589844 162.152344 161.839844 162.191406 163.046875 162 C 176.195312 159.925781 184.746094 148.835938 184.078125 137.234375 Z M 171.710938 141.082031 C 170.0625 146.867188 165.277344 150.320312 158.773438 150.328125 C 147.21875 150.335938 135.660156 150.332031 124.105469 150.308594 L 124.105469 126.035156 C 136.109375 126.011719 147.054688 126.027344 158 126.039062 C 159.296875 126.039062 160.605469 126.074219 161.886719 126.238281 C 168.652344 127.082031 173.578125 134.542969 171.710938 141.082031 Z M 171.710938 141.082031 " fill-opacity="1" fill-rule="nonzero"/></g><g fill="#000000" fill-opacity="1"><g transform="translate(132.605415, 195.908569)"><g><path d="M 1.046875 -14.46875 L 6.328125 -14.46875 C 7.796875 -14.46875 8.984375 -14.085938 9.890625 -13.328125 C 10.804688 -12.566406 11.265625 -11.460938 11.265625 -10.015625 C 11.265625 -8.566406 10.800781 -7.425781 9.875 -6.59375 C 8.957031 -5.769531 7.773438 -5.359375 6.328125 -5.359375 L 4.34375 -5.359375 L 4.34375 0 L 1.046875 0 Z M 4.34375 -8 L 5.28125 -8 C 6.007812 -8 6.609375 -8.144531 7.078125 -8.4375 C 7.554688 -8.738281 7.796875 -9.226562 7.796875 -9.90625 C 7.796875 -10.59375 7.554688 -11.082031 7.078125 -11.375 C 6.609375 -11.675781 6.007812 -11.828125 5.28125 -11.828125 L 4.34375 -11.828125 Z M 4.34375 -8 "/></g></g></g><g fill="#000000" fill-opacity="1"><g transform="translate(144.275336, 195.908569)"><g><path d="M 8.390625 -14.46875 L 14.234375 0 L 10.6875 0 L 9.625 -2.890625 L 4.125 -2.890625 L 3.046875 0 L -0.484375 0 L 5.34375 -14.46875 Z M 8.5 -5.78125 L 6.890625 -10 L 6.859375 -10 L 5.234375 -5.78125 Z M 8.5 -5.78125 "/></g></g></g><g fill="#000000" fill-opacity="1"><g transform="translate(158.012898, 195.908569)"><g><path d="M 12.171875 -14.46875 L 12.171875 -5.140625 C 12.171875 -3.359375 11.691406 -2.007812 10.734375 -1.09375 C 9.773438 -0.1875 8.367188 0.265625 6.515625 0.265625 C 4.671875 0.265625 3.269531 -0.1875 2.3125 -1.09375 C 1.351562 -2.007812 0.875 -3.359375 0.875 -5.140625 L 0.875 -14.46875 L 4.171875 -14.46875 L 4.171875 -6.09375 C 4.171875 -4.925781 4.351562 -4.113281 4.71875 -3.65625 C 5.09375 -3.207031 5.691406 -2.984375 6.515625 -2.984375 C 7.347656 -2.984375 7.945312 -3.207031 8.3125 -3.65625 C 8.6875 -4.113281 8.875 -4.925781 8.875 -6.09375 L 8.875 -14.46875 Z M 12.171875 -14.46875 "/></g></g></g><g fill="#000000" fill-opacity="1"><g transform="translate(171.049566, 195.908569)"><g><path d="M 4.34375 -14.46875 L 4.34375 -2.890625 L 9.328125 -2.890625 L 9.328125 0 L 1.046875 0 L 1.046875 -14.46875 Z M 4.34375 -14.46875 "/></g></g></g><g fill="#000000" fill-opacity="1"><g transform="translate(180.949723, 195.908569)"><g/></g></g><g fill="#000000" fill-opacity="1"><g transform="translate(185.733336, 195.908569)"><g><path d="M 8.75 -2.984375 C 9.25 -2.984375 9.734375 -3.054688 10.203125 -3.203125 C 10.679688 -3.359375 11.03125 -3.503906 11.25 -3.640625 L 11.59375 -3.875 L 12.984375 -1.0625 C 12.941406 -1.03125 12.878906 -0.984375 12.796875 -0.921875 C 12.710938 -0.867188 12.519531 -0.765625 12.21875 -0.609375 C 11.925781 -0.453125 11.609375 -0.3125 11.265625 -0.1875 C 10.929688 -0.0703125 10.488281 0.03125 9.9375 0.125 C 9.382812 0.21875 8.816406 0.265625 8.234375 0.265625 C 6.890625 0.265625 5.613281 -0.0625 4.40625 -0.71875 C 3.207031 -1.382812 2.238281 -2.296875 1.5 -3.453125 C 0.769531 -4.609375 0.40625 -5.859375 0.40625 -7.203125 C 0.40625 -8.222656 0.617188 -9.195312 1.046875 -10.125 C 1.484375 -11.0625 2.0625 -11.863281 2.78125 -12.53125 C 3.5 -13.195312 4.335938 -13.726562 5.296875 -14.125 C 6.253906 -14.519531 7.234375 -14.71875 8.234375 -14.71875 C 9.171875 -14.71875 10.035156 -14.609375 10.828125 -14.390625 C 11.617188 -14.171875 12.175781 -13.953125 12.5 -13.734375 L 12.984375 -13.390625 L 11.59375 -10.59375 C 11.507812 -10.65625 11.382812 -10.734375 11.21875 -10.828125 C 11.050781 -10.929688 10.722656 -11.066406 10.234375 -11.234375 C 9.742188 -11.398438 9.25 -11.484375 8.75 -11.484375 C 7.957031 -11.484375 7.242188 -11.351562 6.609375 -11.09375 C 5.972656 -10.84375 5.472656 -10.503906 5.109375 -10.078125 C 4.742188 -9.660156 4.460938 -9.207031 4.265625 -8.71875 C 4.078125 -8.238281 3.984375 -7.742188 3.984375 -7.234375 C 3.984375 -6.140625 4.394531 -5.15625 5.21875 -4.28125 C 6.039062 -3.414062 7.21875 -2.984375 8.75 -2.984375 Z M 8.75 -2.984375 "/></g></g></g><g fill="#000000" fill-opacity="1"><g transform="translate(198.927709, 195.908569)"><g><path d="M 12.171875 -14.46875 L 12.171875 -5.140625 C 12.171875 -3.359375 11.691406 -2.007812 10.734375 -1.09375 C 9.773438 -0.1875 8.367188 0.265625 6.515625 0.265625 C 4.671875 0.265625 3.269531 -0.1875 2.3125 -1.09375 C 1.351562 -2.007812 0.875 -3.359375 0.875 -5.140625 L 0.875 -14.46875 L 4.171875 -14.46875 L 4.171875 -6.09375 C 4.171875 -4.925781 4.351562 -4.113281 4.71875 -3.65625 C 5.09375 -3.207031 5.691406 -2.984375 6.515625 -2.984375 C 7.347656 -2.984375 7.945312 -3.207031 8.3125 -3.65625 C 8.6875 -4.113281 8.875 -4.925781 8.875 -6.09375 L 8.875 -14.46875 Z M 12.171875 -14.46875 "/></g></g></g><g fill="#000000" fill-opacity="1"><g transform="translate(211.964376, 195.908569)"><g><path d="M 0.140625 -11.578125 L 0.140625 -14.46875 L 10.3125 -14.46875 L 10.3125 -11.578125 L 6.875 -11.578125 L 6.875 0 L 3.578125 0 L 3.578125 -11.578125 Z M 0.140625 -11.578125 "/></g></g></g><g fill="#000000" fill-opacity="1"><g transform="translate(222.407735, 195.908569)"><g><path d="M 9.328125 -14.46875 L 9.328125 -11.578125 L 4.34375 -11.578125 L 4.34375 -8.703125 L 9.109375 -8.703125 L 9.109375 -5.796875 L 4.34375 -5.796875 L 4.34375 -2.890625 L 9.328125 -2.890625 L 9.328125 0 L 1.046875 0 L 1.046875 -14.46875 Z M 9.328125 -14.46875 "/></g></g></g><g fill="#000000" fill-opacity="1"><g transform="translate(232.570726, 195.908569)"><g/></g></g><g fill="#000000" fill-opacity="1"><g transform="translate(237.354339, 195.908569)"><g><path d="M 9.421875 -14.46875 L 9.421875 -11.578125 L 4.34375 -11.578125 L 4.34375 -8.703125 L 9.03125 -8.703125 L 9.03125 -5.796875 L 4.34375 -5.796875 L 4.34375 0 L 1.046875 0 L 1.046875 -14.46875 Z M 9.421875 -14.46875 "/></g></g></g><g fill="#000000" fill-opacity="1"><g transform="translate(247.289538, 195.908569)"><g><path d="M 4.34375 -14.46875 L 4.34375 -2.890625 L 9.328125 -2.890625 L 9.328125 0 L 1.046875 0 L 1.046875 -14.46875 Z M 4.34375 -14.46875 "/></g></g></g><g fill="#000000" fill-opacity="1"><g transform="translate(257.189695, 195.908569)"><g><path d="M 0.40625 -7.234375 C 0.40625 -9.328125 1.117188 -11.097656 2.546875 -12.546875 C 3.972656 -13.992188 5.691406 -14.71875 7.703125 -14.71875 C 9.722656 -14.71875 11.4375 -13.992188 12.84375 -12.546875 C 14.257812 -11.109375 14.96875 -9.335938 14.96875 -7.234375 C 14.96875 -5.117188 14.269531 -3.335938 12.875 -1.890625 C 11.488281 -0.453125 9.765625 0.265625 7.703125 0.265625 C 5.578125 0.265625 3.828125 -0.445312 2.453125 -1.875 C 1.085938 -3.3125 0.40625 -5.097656 0.40625 -7.234375 Z M 3.96875 -7.234375 C 3.96875 -6.472656 4.082031 -5.78125 4.3125 -5.15625 C 4.539062 -4.53125 4.945312 -4 5.53125 -3.5625 C 6.125 -3.132812 6.847656 -2.921875 7.703125 -2.921875 C 8.921875 -2.921875 9.84375 -3.34375 10.46875 -4.1875 C 11.09375 -5.03125 11.40625 -6.046875 11.40625 -7.234375 C 11.40625 -8.421875 11.085938 -9.4375 10.453125 -10.28125 C 9.816406 -11.125 8.898438 -11.546875 7.703125 -11.546875 C 6.503906 -11.546875 5.582031 -11.125 4.9375 -10.28125 C 4.289062 -9.4375 3.96875 -8.421875 3.96875 -7.234375 Z M 3.96875 -7.234375 "/></g></g></g><g fill="#000000" fill-opacity="1"><g transform="translate(272.556851, 195.908569)"><g><path d="M 1.046875 -14.46875 L 6.21875 -14.46875 C 7.613281 -14.46875 8.75 -14.09375 9.625 -13.34375 C 10.5 -12.601562 10.9375 -11.546875 10.9375 -10.171875 C 10.9375 -9.109375 10.671875 -8.21875 10.140625 -7.5 C 9.609375 -6.78125 8.890625 -6.273438 7.984375 -5.984375 L 12.953125 0 L 8.765625 0 L 4.34375 -5.71875 L 4.34375 0 L 1.046875 0 Z M 4.34375 -8.046875 L 4.734375 -8.046875 C 5.035156 -8.046875 5.289062 -8.050781 5.5 -8.0625 C 5.71875 -8.070312 5.957031 -8.113281 6.21875 -8.1875 C 6.488281 -8.257812 6.707031 -8.359375 6.875 -8.484375 C 7.039062 -8.609375 7.179688 -8.796875 7.296875 -9.046875 C 7.410156 -9.296875 7.46875 -9.59375 7.46875 -9.9375 C 7.46875 -10.289062 7.410156 -10.585938 7.296875 -10.828125 C 7.179688 -11.078125 7.039062 -11.265625 6.875 -11.390625 C 6.707031 -11.523438 6.488281 -11.625 6.21875 -11.6875 C 5.957031 -11.757812 5.71875 -11.800781 5.5 -11.8125 C 5.289062 -11.820312 5.035156 -11.828125 4.734375 -11.828125 L 4.34375 -11.828125 Z M 4.34375 -8.046875 "/></g></g></g><g fill="#000000" fill-opacity="1"><g transform="translate(285.102894, 195.908569)"><g><path d="M 4.34375 -14.46875 L 4.34375 0 L 1.046875 0 L 1.046875 -14.46875 Z M 4.34375 -14.46875 "/></g></g></g><g fill="#000000" fill-opacity="1"><g transform="translate(290.499794, 195.908569)"><g><path d="M 4.34375 -8.96875 L 4.34375 0 L 1.046875 0 L 1.046875 -14.46875 L 4.34375 -14.46875 L 10.09375 -5.484375 L 10.140625 -5.484375 L 10.140625 -14.46875 L 13.421875 -14.46875 L 13.421875 0 L 10.140625 0 L 4.375 -8.96875 Z M 4.34375 -8.96875 "/></g></g></g><g fill="#000000" fill-opacity="1"><g transform="translate(133.338058, 213.900032)"><g><path d="M 0.25 -7.703125 L 2.308594 -7.703125 L 2.308594 -0.0234375 L 3.183594 -0.0234375 L 3.183594 -7.703125 L 5.242188 -7.703125 L 5.242188 -8.515625 L 0.25 -8.515625 Z M 0.25 -7.703125 "/></g></g></g><g fill="#000000" fill-opacity="1"><g transform="translate(142.099768, 213.900032)"><g><path d="M 5.304688 -2.746094 C 5.304688 -2.210938 5.117188 -1.734375 4.742188 -1.347656 C 4.371094 -0.949219 3.90625 -0.75 3.371094 -0.75 C 2.820312 -0.75 2.359375 -0.949219 1.984375 -1.347656 C 1.609375 -1.734375 1.4375 -2.210938 1.4375 -2.746094 C 1.4375 -3.269531 1.609375 -3.746094 1.984375 -4.144531 C 2.359375 -4.542969 2.820312 -4.742188 3.371094 -4.742188 C 3.90625 -4.742188 4.371094 -4.542969 4.742188 -4.144531 C 5.117188 -3.746094 5.304688 -3.269531 5.304688 -2.746094 Z M 6.179688 0 L 6.179688 -5.492188 L 5.304688 -5.492188 L 5.304688 -4.542969 C 5.253906 -4.617188 5.195312 -4.679688 5.144531 -4.742188 C 4.617188 -5.316406 3.980469 -5.617188 3.234375 -5.617188 C 2.472656 -5.617188 1.835938 -5.316406 1.3125 -4.742188 C 0.8125 -4.167969 0.5625 -3.507812 0.5625 -2.746094 C 0.5625 -1.972656 0.8125 -1.3125 1.3125 -0.75 C 1.835938 -0.164062 2.472656 0.125 3.234375 0.125 C 3.980469 0.125 4.617188 -0.164062 5.144531 -0.75 C 5.195312 -0.800781 5.253906 -0.863281 5.304688 -0.9375 L 5.304688 0 Z M 6.179688 0 "/></g></g></g><g fill="#000000" fill-opacity="1"><g transform="translate(152.483562, 213.900032)"><g><path d="M 1.808594 0 L 1.808594 -2.632812 L 3.96875 0 L 5.132812 0 L 2.722656 -2.832031 L 4.980469 -5.503906 L 3.820312 -5.503906 L 1.808594 -3.019531 L 1.808594 -9.363281 L 0.9375 -9.363281 L 0.9375 0 Z M 1.808594 0 "/></g></g></g><g fill="#000000" fill-opacity="1"><g transform="translate(161.008199, 213.900032)"><g><path d="M 6.304688 -2.871094 C 6.304688 -3.621094 6.003906 -4.269531 5.429688 -4.832031 C 4.867188 -5.367188 4.195312 -5.644531 3.433594 -5.644531 C 2.632812 -5.644531 1.960938 -5.355469 1.398438 -4.792969 C 0.835938 -4.230469 0.5625 -3.558594 0.5625 -2.769531 C 0.5625 -1.972656 0.835938 -1.296875 1.398438 -0.75 C 1.660156 -0.488281 1.960938 -0.289062 2.308594 -0.136719 C 2.660156 0.0117188 3.070312 0.0859375 3.558594 0.0859375 C 4.042969 0.0859375 4.519531 -0.0625 4.992188 -0.363281 C 5.46875 -0.660156 5.816406 -1.085938 6.054688 -1.609375 L 5.054688 -1.609375 C 4.855469 -1.347656 4.617188 -1.148438 4.332031 -1 C 4.042969 -0.847656 3.746094 -0.785156 3.433594 -0.785156 C 2.957031 -0.785156 2.535156 -0.9375 2.160156 -1.25 C 1.785156 -1.546875 1.546875 -1.933594 1.472656 -2.410156 L 6.304688 -2.410156 Z M 5.378906 -3.160156 L 1.484375 -3.160156 C 1.535156 -3.382812 1.621094 -3.59375 1.746094 -3.796875 C 2.148438 -4.445312 2.710938 -4.769531 3.433594 -4.769531 C 3.894531 -4.769531 4.308594 -4.617188 4.667969 -4.320312 C 5.042969 -4.007812 5.269531 -3.621094 5.378906 -3.160156 Z M 5.378906 -3.160156 "/></g></g></g><g fill="#000000" fill-opacity="1"><g transform="translate(171.08005, 213.900032)"><g/></g></g><g fill="#000000" fill-opacity="1"><g transform="translate(177.720564, 213.900032)"><g><path d="M 1.808594 -4.207031 L 1.808594 -7.652344 L 3.78125 -7.652344 C 4.292969 -7.652344 4.707031 -7.492188 5.019531 -7.179688 C 5.316406 -6.855469 5.480469 -6.453125 5.480469 -5.953125 C 5.480469 -5.441406 5.316406 -5.03125 4.992188 -4.695312 C 4.667969 -4.371094 4.269531 -4.207031 3.78125 -4.207031 Z M 6.355469 -5.929688 C 6.355469 -6.679688 6.078125 -7.289062 5.554688 -7.777344 C 5.03125 -8.25 4.40625 -8.488281 3.65625 -8.488281 L 0.9375 -8.488281 L 0.9375 0 L 1.808594 0 L 1.808594 -3.359375 L 3.65625 -3.359375 C 4.40625 -3.359375 5.042969 -3.59375 5.554688 -4.070312 C 6.078125 -4.570312 6.355469 -5.179688 6.355469 -5.929688 Z M 6.355469 -5.929688 "/></g></g></g><g fill="#000000" fill-opacity="1"><g transform="translate(187.592779, 213.900032)"><g><path d="M 3.757812 -4.355469 L 3.757812 -5.492188 C 3.582031 -5.566406 3.394531 -5.605469 3.207031 -5.605469 C 2.585938 -5.605469 2.136719 -5.253906 1.847656 -4.582031 L 1.808594 -4.355469 L 1.808594 -5.492188 L 0.9375 -5.492188 L 0.9375 0 L 1.808594 0 L 1.808594 -2.746094 C 1.808594 -3.195312 1.910156 -3.59375 2.121094 -3.957031 C 2.222656 -4.144531 2.359375 -4.308594 2.523438 -4.433594 C 2.683594 -4.558594 2.882812 -4.632812 3.109375 -4.632812 C 3.332031 -4.632812 3.546875 -4.53125 3.757812 -4.355469 Z M 3.757812 -4.355469 "/></g></g></g><g fill="#000000" fill-opacity="1"><g transform="translate(194.744881, 213.900032)"><g><path d="M 5.429688 -2.769531 C 5.429688 -2.222656 5.230469 -1.761719 4.84375 -1.375 C 4.445312 -0.972656 3.980469 -0.785156 3.433594 -0.785156 C 2.882812 -0.785156 2.410156 -0.972656 2.023438 -1.375 C 1.621094 -1.761719 1.4375 -2.222656 1.4375 -2.769531 C 1.4375 -3.320312 1.621094 -3.78125 2.023438 -4.183594 C 2.410156 -4.570312 2.882812 -4.769531 3.433594 -4.769531 C 3.980469 -4.769531 4.445312 -4.570312 4.84375 -4.183594 C 5.230469 -3.78125 5.429688 -3.320312 5.429688 -2.769531 Z M 6.304688 -2.769531 C 6.304688 -3.558594 6.015625 -4.230469 5.457031 -4.792969 C 4.894531 -5.355469 4.21875 -5.644531 3.433594 -5.644531 C 2.632812 -5.644531 1.960938 -5.355469 1.398438 -4.792969 C 0.835938 -4.230469 0.5625 -3.558594 0.5625 -2.769531 C 0.5625 -1.972656 0.835938 -1.296875 1.398438 -0.75 C 1.960938 -0.1875 2.648438 0.0859375 3.433594 0.0859375 C 4.207031 0.0859375 4.894531 -0.1875 5.457031 -0.75 C 6.015625 -1.296875 6.304688 -1.972656 6.304688 -2.769531 Z M 6.304688 -2.769531 "/></g></g></g><g fill="#000000" fill-opacity="1"><g transform="translate(204.879122, 213.900032)"><g><path d="M 5.378906 -2.746094 C 5.378906 -2.210938 5.195312 -1.734375 4.820312 -1.347656 C 4.445312 -0.949219 3.980469 -0.75 3.445312 -0.75 C 2.910156 -0.75 2.445312 -0.949219 2.074219 -1.347656 C 1.699219 -1.734375 1.511719 -2.195312 1.511719 -2.746094 C 1.511719 -3.285156 1.699219 -3.746094 2.074219 -4.144531 C 2.445312 -4.542969 2.910156 -4.742188 3.445312 -4.742188 C 3.980469 -4.742188 4.445312 -4.542969 4.820312 -4.144531 C 5.195312 -3.746094 5.378906 -3.269531 5.378906 -2.746094 Z M 1.484375 0.75 L 0.585938 0.75 C 0.6875 1.335938 0.949219 1.847656 1.398438 2.285156 C 1.949219 2.847656 2.621094 3.121094 3.40625 3.121094 C 4.183594 3.121094 4.855469 2.847656 5.417969 2.285156 C 5.96875 1.734375 6.253906 1.0625 6.253906 0.273438 L 6.253906 -5.492188 L 5.378906 -5.492188 L 5.378906 -4.570312 C 5.332031 -4.617188 5.28125 -4.679688 5.230469 -4.742188 C 4.679688 -5.316406 4.042969 -5.617188 3.320312 -5.617188 C 2.546875 -5.617188 1.910156 -5.316406 1.386719 -4.742188 C 0.886719 -4.167969 0.636719 -3.507812 0.636719 -2.746094 C 0.636719 -1.972656 0.886719 -1.3125 1.386719 -0.75 C 1.910156 -0.164062 2.546875 0.125 3.320312 0.125 C 4.070312 0.125 4.707031 -0.164062 5.230469 -0.75 C 5.28125 -0.800781 5.332031 -0.863281 5.378906 -0.910156 L 5.378906 0.273438 C 5.378906 0.824219 5.179688 1.285156 4.792969 1.671875 C 4.40625 2.058594 3.945312 2.246094 3.40625 2.246094 C 2.859375 2.246094 2.398438 2.058594 2.011719 1.671875 C 1.734375 1.398438 1.558594 1.097656 1.484375 0.75 Z M 1.484375 0.75 "/></g></g></g><g fill="#000000" fill-opacity="1"><g transform="translate(215.33778, 213.900032)"><g><path d="M 3.757812 -4.355469 L 3.757812 -5.492188 C 3.582031 -5.566406 3.394531 -5.605469 3.207031 -5.605469 C 2.585938 -5.605469 2.136719 -5.253906 1.847656 -4.582031 L 1.808594 -4.355469 L 1.808594 -5.492188 L 0.9375 -5.492188 L 0.9375 0 L 1.808594 0 L 1.808594 -2.746094 C 1.808594 -3.195312 1.910156 -3.59375 2.121094 -3.957031 C 2.222656 -4.144531 2.359375 -4.308594 2.523438 -4.433594 C 2.683594 -4.558594 2.882812 -4.632812 3.109375 -4.632812 C 3.332031 -4.632812 3.546875 -4.53125 3.757812 -4.355469 Z M 3.757812 -4.355469 "/></g></g></g><g fill="#000000" fill-opacity="1"><g transform="translate(222.489882, 213.900032)"><g><path d="M 5.304688 -2.746094 C 5.304688 -2.210938 5.117188 -1.734375 4.742188 -1.347656 C 4.371094 -0.949219 3.90625 -0.75 3.371094 -0.75 C 2.820312 -0.75 2.359375 -0.949219 1.984375 -1.347656 C 1.609375 -1.734375 1.4375 -2.210938 1.4375 -2.746094 C 1.4375 -3.269531 1.609375 -3.746094 1.984375 -4.144531 C 2.359375 -4.542969 2.820312 -4.742188 3.371094 -4.742188 C 3.90625 -4.742188 4.371094 -4.542969 4.742188 -4.144531 C 5.117188 -3.746094 5.304688 -3.269531 5.304688 -2.746094 Z M 6.179688 0 L 6.179688 -5.492188 L 5.304688 -5.492188 L 5.304688 -4.542969 C 5.253906 -4.617188 5.195312 -4.679688 5.144531 -4.742188 C 4.617188 -5.316406 3.980469 -5.617188 3.234375 -5.617188 C 2.472656 -5.617188 1.835938 -5.316406 1.3125 -4.742188 C 0.8125 -4.167969 0.5625 -3.507812 0.5625 -2.746094 C 0.5625 -1.972656 0.8125 -1.3125 1.3125 -0.75 C 1.835938 -0.164062 2.472656 0.125 3.234375 0.125 C 3.980469 0.125 4.617188 -0.164062 5.144531 -0.75 C 5.195312 -0.800781 5.253906 -0.863281 5.304688 -0.9375 L 5.304688 0 Z M 6.179688 0 "/></g></g></g><g fill="#000000" fill-opacity="1"><g transform="translate(232.873679, 213.900032)"><g><path d="M 7.902344 -0.0234375 L 8.777344 -0.0234375 L 8.777344 -3.457031 C 8.777344 -4.070312 8.613281 -4.582031 8.3125 -4.980469 C 8.164062 -5.179688 7.964844 -5.332031 7.738281 -5.457031 C 7.503906 -5.582031 7.191406 -5.644531 6.816406 -5.644531 C 6.429688 -5.644531 6.09375 -5.53125 5.804688 -5.332031 C 5.542969 -5.132812 5.332031 -4.894531 5.15625 -4.59375 C 5.09375 -4.730469 5.019531 -4.855469 4.929688 -4.980469 C 4.78125 -5.179688 4.582031 -5.332031 4.355469 -5.457031 C 4.121094 -5.582031 3.808594 -5.644531 3.433594 -5.644531 C 3.046875 -5.644531 2.710938 -5.53125 2.421875 -5.332031 C 2.171875 -5.144531 1.972656 -4.917969 1.808594 -4.632812 L 1.808594 -5.519531 L 0.9375 -5.519531 L 0.9375 -0.0234375 L 1.808594 -0.0234375 L 1.808594 -2.832031 C 1.847656 -3.269531 1.960938 -3.65625 2.148438 -3.96875 C 2.273438 -4.195312 2.460938 -4.394531 2.683594 -4.542969 C 2.910156 -4.695312 3.144531 -4.769531 3.40625 -4.769531 C 3.65625 -4.769531 3.859375 -4.71875 3.980469 -4.644531 C 4.332031 -4.417969 4.519531 -4.019531 4.519531 -3.457031 L 4.519531 -0.0234375 L 5.394531 -0.0234375 L 5.394531 -3.457031 C 5.394531 -3.519531 5.378906 -3.59375 5.378906 -3.65625 C 5.417969 -3.769531 5.46875 -3.871094 5.53125 -3.96875 C 5.65625 -4.195312 5.84375 -4.394531 6.066406 -4.542969 C 6.292969 -4.695312 6.527344 -4.769531 6.792969 -4.769531 C 7.039062 -4.769531 7.242188 -4.71875 7.367188 -4.644531 C 7.714844 -4.417969 7.902344 -4.019531 7.902344 -3.457031 Z M 7.902344 -0.0234375 "/></g></g></g><g fill="#000000" fill-opacity="1"><g transform="translate(245.665645, 213.900032)"><g><path d="M 7.902344 -0.0234375 L 8.777344 -0.0234375 L 8.777344 -3.457031 C 8.777344 -4.070312 8.613281 -4.582031 8.3125 -4.980469 C 8.164062 -5.179688 7.964844 -5.332031 7.738281 -5.457031 C 7.503906 -5.582031 7.191406 -5.644531 6.816406 -5.644531 C 6.429688 -5.644531 6.09375 -5.53125 5.804688 -5.332031 C 5.542969 -5.132812 5.332031 -4.894531 5.15625 -4.59375 C 5.09375 -4.730469 5.019531 -4.855469 4.929688 -4.980469 C 4.78125 -5.179688 4.582031 -5.332031 4.355469 -5.457031 C 4.121094 -5.582031 3.808594 -5.644531 3.433594 -5.644531 C 3.046875 -5.644531 2.710938 -5.53125 2.421875 -5.332031 C 2.171875 -5.144531 1.972656 -4.917969 1.808594 -4.632812 L 1.808594 -5.519531 L 0.9375 -5.519531 L 0.9375 -0.0234375 L 1.808594 -0.0234375 L 1.808594 -2.832031 C 1.847656 -3.269531 1.960938 -3.65625 2.148438 -3.96875 C 2.273438 -4.195312 2.460938 -4.394531 2.683594 -4.542969 C 2.910156 -4.695312 3.144531 -4.769531 3.40625 -4.769531 C 3.65625 -4.769531 3.859375 -4.71875 3.980469 -4.644531 C 4.332031 -4.417969 4.519531 -4.019531 4.519531 -3.457031 L 4.519531 -0.0234375 L 5.394531 -0.0234375 L 5.394531 -3.457031 C 5.394531 -3.519531 5.378906 -3.59375 5.378906 -3.65625 C 5.417969 -3.769531 5.46875 -3.871094 5.53125 -3.96875 C 5.65625 -4.195312 5.84375 -4.394531 6.066406 -4.542969 C 6.292969 -4.695312 6.527344 -4.769531 6.792969 -4.769531 C 7.039062 -4.769531 7.242188 -4.71875 7.367188 -4.644531 C 7.714844 -4.417969 7.902344 -4.019531 7.902344 -3.457031 Z M 7.902344 -0.0234375 "/></g></g></g><g fill="#000000" fill-opacity="1"><g transform="translate(258.45761, 213.900032)"><g><path d="M 1.824219 -7.390625 C 1.710938 -7.492188 1.574219 -7.554688 1.421875 -7.554688 C 1.273438 -7.554688 1.136719 -7.492188 1.035156 -7.390625 C 0.921875 -7.277344 0.875 -7.140625 0.875 -6.992188 C 0.875 -6.839844 0.921875 -6.703125 1.035156 -6.605469 C 1.136719 -6.492188 1.273438 -6.441406 1.421875 -6.441406 C 1.574219 -6.441406 1.710938 -6.492188 1.824219 -6.605469 C 1.921875 -6.703125 1.984375 -6.839844 1.984375 -6.992188 C 1.984375 -7.140625 1.921875 -7.277344 1.824219 -7.390625 Z M 1.871094 0 L 1.871094 -5.492188 L 1 -5.492188 L 1 0 Z M 1.871094 0 "/></g></g></g><g fill="#000000" fill-opacity="1"><g transform="translate(264.586547, 213.900032)"><g><path d="M 4.730469 0 L 5.605469 0 L 5.605469 -3.433594 C 5.605469 -4.070312 5.429688 -4.582031 5.105469 -4.96875 C 4.929688 -5.167969 4.730469 -5.316406 4.496094 -5.429688 C 4.246094 -5.542969 3.933594 -5.605469 3.546875 -5.605469 C 3.144531 -5.605469 2.808594 -5.492188 2.507812 -5.292969 C 2.222656 -5.105469 1.984375 -4.855469 1.808594 -4.542969 L 1.808594 -5.492188 L 0.9375 -5.492188 L 0.9375 0 L 1.808594 0 L 1.808594 -2.296875 C 1.808594 -2.996094 1.933594 -3.546875 2.195312 -3.957031 C 2.347656 -4.183594 2.535156 -4.371094 2.769531 -4.519531 C 2.996094 -4.65625 3.308594 -4.730469 3.683594 -4.730469 C 4.058594 -4.730469 4.320312 -4.59375 4.480469 -4.34375 C 4.644531 -4.09375 4.730469 -3.78125 4.730469 -3.433594 Z M 4.730469 0 "/></g></g></g><g fill="#000000" fill-opacity="1"><g transform="translate(274.209212, 213.900032)"><g><path d="M 5.378906 -2.746094 C 5.378906 -2.210938 5.195312 -1.734375 4.820312 -1.347656 C 4.445312 -0.949219 3.980469 -0.75 3.445312 -0.75 C 2.910156 -0.75 2.445312 -0.949219 2.074219 -1.347656 C 1.699219 -1.734375 1.511719 -2.195312 1.511719 -2.746094 C 1.511719 -3.285156 1.699219 -3.746094 2.074219 -4.144531 C 2.445312 -4.542969 2.910156 -4.742188 3.445312 -4.742188 C 3.980469 -4.742188 4.445312 -4.542969 4.820312 -4.144531 C 5.195312 -3.746094 5.378906 -3.269531 5.378906 -2.746094 Z M 1.484375 0.75 L 0.585938 0.75 C 0.6875 1.335938 0.949219 1.847656 1.398438 2.285156 C 1.949219 2.847656 2.621094 3.121094 3.40625 3.121094 C 4.183594 3.121094 4.855469 2.847656 5.417969 2.285156 C 5.96875 1.734375 6.253906 1.0625 6.253906 0.273438 L 6.253906 -5.492188 L 5.378906 -5.492188 L 5.378906 -4.570312 C 5.332031 -4.617188 5.28125 -4.679688 5.230469 -4.742188 C 4.679688 -5.316406 4.042969 -5.617188 3.320312 -5.617188 C 2.546875 -5.617188 1.910156 -5.316406 1.386719 -4.742188 C 0.886719 -4.167969 0.636719 -3.507812 0.636719 -2.746094 C 0.636719 -1.972656 0.886719 -1.3125 1.386719 -0.75 C 1.910156 -0.164062 2.546875 0.125 3.320312 0.125 C 4.070312 0.125 4.707031 -0.164062 5.230469 -0.75 C 5.28125 -0.800781 5.332031 -0.863281 5.378906 -0.910156 L 5.378906 0.273438 C 5.378906 0.824219 5.179688 1.285156 4.792969 1.671875 C 4.40625 2.058594 3.945312 2.246094 3.40625 2.246094 C 2.859375 2.246094 2.398438 2.058594 2.011719 1.671875 C 1.734375 1.398438 1.558594 1.097656 1.484375 0.75 Z M 1.484375 0.75 "/></g></g></g><g fill="#000000" fill-opacity="1"><g transform="translate(284.667871, 213.900032)"><g/></g></g><g fill="#000000" fill-opacity="1"><g transform="translate(291.308384, 213.900032)"><g><path d="M 3.285156 -3.996094 C 4.382812 -3.734375 5.132812 -3.445312 5.53125 -3.121094 C 5.804688 -2.894531 5.941406 -2.609375 5.941406 -2.257812 C 5.941406 -1.910156 5.867188 -1.621094 5.71875 -1.421875 C 5.34375 -0.898438 4.667969 -0.636719 3.71875 -0.636719 C 2.398438 -0.636719 1.648438 -1.085938 1.484375 -1.984375 L 0.460938 -1.984375 C 0.761719 -0.550781 1.847656 0.164062 3.71875 0.164062 C 4.558594 0.164062 5.253906 -0.0117188 5.816406 -0.386719 C 6.492188 -0.824219 6.839844 -1.472656 6.839844 -2.320312 C 6.839844 -3.019531 6.566406 -3.558594 6.015625 -3.933594 C 5.628906 -4.207031 5.007812 -4.457031 4.144531 -4.679688 C 3.269531 -4.90625 2.710938 -5.09375 2.445312 -5.230469 C 1.871094 -5.519531 1.585938 -5.917969 1.597656 -6.441406 C 1.597656 -6.714844 1.648438 -6.953125 1.773438 -7.128906 C 2.097656 -7.617188 2.671875 -7.863281 3.496094 -7.863281 C 4.65625 -7.863281 5.316406 -7.492188 5.492188 -6.765625 L 6.441406 -6.765625 C 6.128906 -7.988281 5.144531 -8.613281 3.496094 -8.613281 C 2.746094 -8.613281 2.085938 -8.414062 1.535156 -8.015625 C 0.972656 -7.617188 0.6875 -7.027344 0.6875 -6.230469 C 0.6875 -5.144531 1.558594 -4.394531 3.285156 -3.996094 Z M 3.285156 -3.996094 "/></g></g></g><g fill="#000000" fill-opacity="1"><g transform="translate(301.742091, 213.900032)"><g><path d="M 6.304688 -2.871094 C 6.304688 -3.621094 6.003906 -4.269531 5.429688 -4.832031 C 4.867188 -5.367188 4.195312 -5.644531 3.433594 -5.644531 C 2.632812 -5.644531 1.960938 -5.355469 1.398438 -4.792969 C 0.835938 -4.230469 0.5625 -3.558594 0.5625 -2.769531 C 0.5625 -1.972656 0.835938 -1.296875 1.398438 -0.75 C 1.660156 -0.488281 1.960938 -0.289062 2.308594 -0.136719 C 2.660156 0.0117188 3.070312 0.0859375 3.558594 0.0859375 C 4.042969 0.0859375 4.519531 -0.0625 4.992188 -0.363281 C 5.46875 -0.660156 5.816406 -1.085938 6.054688 -1.609375 L 5.054688 -1.609375 C 4.855469 -1.347656 4.617188 -1.148438 4.332031 -1 C 4.042969 -0.847656 3.746094 -0.785156 3.433594 -0.785156 C 2.957031 -0.785156 2.535156 -0.9375 2.160156 -1.25 C 1.785156 -1.546875 1.546875 -1.933594 1.472656 -2.410156 L 6.304688 -2.410156 Z M 5.378906 -3.160156 L 1.484375 -3.160156 C 1.535156 -3.382812 1.621094 -3.59375 1.746094 -3.796875 C 2.148438 -4.445312 2.710938 -4.769531 3.433594 -4.769531 C 3.894531 -4.769531 4.308594 -4.617188 4.667969 -4.320312 C 5.042969 -4.007812 5.269531 -3.621094 5.378906 -3.160156 Z M 5.378906 -3.160156 "/></g></g></g><g fill="#000000" fill-opacity="1"><g transform="translate(311.813942, 213.900032)"><g><path d="M 3.757812 -4.355469 L 3.757812 -5.492188 C 3.582031 -5.566406 3.394531 -5.605469 3.207031 -5.605469 C 2.585938 -5.605469 2.136719 -5.253906 1.847656 -4.582031 L 1.808594 -4.355469 L 1.808594 -5.492188 L 0.9375 -5.492188 L 0.9375 0 L 1.808594 0 L 1.808594 -2.746094 C 1.808594 -3.195312 1.910156 -3.59375 2.121094 -3.957031 C 2.222656 -4.144531 2.359375 -4.308594 2.523438 -4.433594 C 2.683594 -4.558594 2.882812 -4.632812 3.109375 -4.632812 C 3.332031 -4.632812 3.546875 -4.53125 3.757812 -4.355469 Z M 3.757812 -4.355469 "/></g></g></g><g fill="#000000" fill-opacity="1"><g transform="translate(318.966044, 213.900032)"><g><path d="M 1.824219 -7.390625 C 1.710938 -7.492188 1.574219 -7.554688 1.421875 -7.554688 C 1.273438 -7.554688 1.136719 -7.492188 1.035156 -7.390625 C 0.921875 -7.277344 0.875 -7.140625 0.875 -6.992188 C 0.875 -6.839844 0.921875 -6.703125 1.035156 -6.605469 C 1.136719 -6.492188 1.273438 -6.441406 1.421875 -6.441406 C 1.574219 -6.441406 1.710938 -6.492188 1.824219 -6.605469 C 1.921875 -6.703125 1.984375 -6.839844 1.984375 -6.992188 C 1.984375 -7.140625 1.921875 -7.277344 1.824219 -7.390625 Z M 1.871094 0 L 1.871094 -5.492188 L 1 -5.492188 L 1 0 Z M 1.871094 0 "/></g></g></g><g fill="#000000" fill-opacity="1"><g transform="translate(325.094992, 213.900032)"><g><path d="M 5.429688 -2.769531 C 5.429688 -2.222656 5.230469 -1.761719 4.84375 -1.375 C 4.445312 -0.972656 3.980469 -0.785156 3.433594 -0.785156 C 2.882812 -0.785156 2.410156 -0.972656 2.023438 -1.375 C 1.621094 -1.761719 1.4375 -2.222656 1.4375 -2.769531 C 1.4375 -3.320312 1.621094 -3.78125 2.023438 -4.183594 C 2.410156 -4.570312 2.882812 -4.769531 3.433594 -4.769531 C 3.980469 -4.769531 4.445312 -4.570312 4.84375 -4.183594 C 5.230469 -3.78125 5.429688 -3.320312 5.429688 -2.769531 Z M 6.304688 -2.769531 C 6.304688 -3.558594 6.015625 -4.230469 5.457031 -4.792969 C 4.894531 -5.355469 4.21875 -5.644531 3.433594 -5.644531 C 2.632812 -5.644531 1.960938 -5.355469 1.398438 -4.792969 C 0.835938 -4.230469 0.5625 -3.558594 0.5625 -2.769531 C 0.5625 -1.972656 0.835938 -1.296875 1.398438 -0.75 C 1.960938 -0.1875 2.648438 0.0859375 3.433594 0.0859375 C 4.207031 0.0859375 4.894531 -0.1875 5.457031 -0.75 C 6.015625 -1.296875 6.304688 -1.972656 6.304688 -2.769531 Z M 6.304688 -2.769531 "/></g></g></g><g fill="#000000" fill-opacity="1"><g transform="translate(335.229244, 213.900032)"><g><path d="M 4.730469 -0.9375 L 4.730469 0 L 5.605469 0 L 5.605469 -5.492188 L 4.730469 -5.492188 L 4.730469 -3.195312 C 4.730469 -2.421875 4.582031 -1.835938 4.292969 -1.398438 C 4.019531 -0.972656 3.53125 -0.761719 2.859375 -0.761719 C 2.484375 -0.761719 2.210938 -0.886719 2.046875 -1.136719 C 1.886719 -1.386719 1.808594 -1.699219 1.808594 -2.058594 L 1.808594 -5.492188 L 0.9375 -5.492188 L 0.9375 -2.058594 C 0.9375 -1.421875 1.097656 -0.898438 1.449219 -0.488281 C 1.796875 -0.0859375 2.273438 0.113281 2.894531 0.113281 C 3.707031 0.113281 4.320312 -0.238281 4.730469 -0.9375 Z M 4.730469 -0.9375 "/></g></g></g><g fill="#000000" fill-opacity="1"><g transform="translate(344.851921, 213.900032)"><g><path d="M 1.722656 -0.773438 C 1.511719 -0.921875 1.347656 -1.171875 1.261719 -1.535156 L 0.335938 -1.535156 C 0.523438 -0.398438 1.25 0.164062 2.523438 0.164062 C 2.820312 0.164062 3.097656 0.136719 3.359375 0.0625 C 3.621094 -0.0117188 3.84375 -0.113281 4.058594 -0.25 C 4.480469 -0.535156 4.695312 -0.972656 4.695312 -1.558594 C 4.695312 -2.160156 4.417969 -2.585938 3.84375 -2.859375 C 3.609375 -2.972656 3.347656 -3.058594 3.058594 -3.121094 C 2.785156 -3.183594 2.523438 -3.257812 2.285156 -3.332031 C 2.035156 -3.40625 1.835938 -3.507812 1.671875 -3.621094 C 1.511719 -3.734375 1.421875 -3.90625 1.421875 -4.15625 C 1.421875 -4.40625 1.523438 -4.59375 1.722656 -4.707031 C 1.921875 -4.832031 2.160156 -4.894531 2.421875 -4.894531 C 2.695312 -4.894531 2.933594 -4.832031 3.121094 -4.730469 C 3.308594 -4.632812 3.457031 -4.433594 3.546875 -4.132812 L 4.480469 -4.132812 C 4.371094 -4.679688 4.132812 -5.070312 3.78125 -5.28125 C 3.421875 -5.503906 2.984375 -5.617188 2.445312 -5.617188 C 1.921875 -5.617188 1.460938 -5.46875 1.074219 -5.195312 C 0.699219 -4.90625 0.5 -4.496094 0.5 -3.945312 C 0.5 -3.683594 0.574219 -3.445312 0.710938 -3.246094 C 0.863281 -3.035156 1.074219 -2.871094 1.347656 -2.746094 C 1.597656 -2.632812 1.859375 -2.546875 2.136719 -2.472656 C 2.410156 -2.410156 2.671875 -2.335938 2.921875 -2.257812 C 3.484375 -2.074219 3.769531 -1.796875 3.769531 -1.449219 C 3.769531 -0.847656 3.371094 -0.5625 2.570312 -0.5625 C 2.234375 -0.5625 1.949219 -0.625 1.722656 -0.773438 Z M 1.722656 -0.773438 "/></g></g></g><g fill="#000000" fill-opacity="1"><g transform="translate(353.13948, 213.900032)"><g><path d="M 1.808594 0 L 1.808594 -9.363281 L 0.9375 -9.363281 L 0.9375 0 Z M 1.808594 0 "/></g></g></g><g fill="#000000" fill-opacity="1"><g transform="translate(359.156123, 213.900032)"><g><path d="M 1.636719 3.121094 L 5.429688 -5.492188 L 4.457031 -5.492188 L 2.882812 -1.808594 L 1.125 -5.492188 L 0.125 -5.492188 L 2.421875 -0.898438 L 0.574219 3.121094 Z M 1.636719 3.121094 "/></g></g></g></svg>